HIERARCHY
ROOT Hips
{
	OFFSET 0.00000 0.00000 0.00000
	CHANNELS 6 Xposition Yposition Zposition Zrotation Yrotation Xrotation 
	JOINT LHipJoint
	{
		OFFSET 0 0 0
		CHANNELS 3 Zrotation Yrotation Xrotation
		JOINT LeftHip
		{
			OFFSET 1.30186 -1.90722 0.65024
			CHANNELS 3 Zrotation Yrotation Xrotation
			JOINT LeftKnee
			{
				OFFSET 2.56413 -7.04489 0.00000
				CHANNELS 3 Zrotation Yrotation Xrotation
				JOINT LeftAnkle
				{
					OFFSET 2.79321 -7.67428 0.00000
					CHANNELS 3 Zrotation Yrotation Xrotation
					JOINT LeftToe
					{
						OFFSET 0.15723 -0.43198 2.08537
						CHANNELS 3 Zrotation Yrotation Xrotation
						End Site
						{
							OFFSET 0.00000 -0.00000 1.07411
						}
					}
				}
			}
		}
	}
	JOINT RHipJoint
	{
		OFFSET 0 0 0
		CHANNELS 3 Zrotation Yrotation Xrotation
		JOINT RightHip
		{
			OFFSET -1.28627 -1.90723 0.65024
			CHANNELS 3 Zrotation Yrotation Xrotation
			JOINT RightKnee
			{
				OFFSET -2.56567 -7.04913 0.00000
				CHANNELS 3 Zrotation Yrotation Xrotation
				JOINT RightAnkle
				{
					OFFSET -2.75597 -7.57198 0.00000
					CHANNELS 3 Zrotation Yrotation Xrotation
					JOINT RightToe
					{
						OFFSET -0.17500 -0.48081 2.22901
						CHANNELS 3 Zrotation Yrotation Xrotation
						End Site
						{
							OFFSET -0.00000 -0.00000 1.14762
						}
					}
				}
			}
		}
	}
	JOINT lowerback
	{
		OFFSET 0 0 0
		CHANNELS 3 Zrotation Yrotation Xrotation
		JOINT Chest
		{
			OFFSET -0.04522 2.07467 -0.16566
			CHANNELS 3 Zrotation Yrotation Xrotation
			JOINT Chest2
			{
				OFFSET -0.01178 2.08825 -0.05393
				CHANNELS 3 Zrotation Yrotation Xrotation
				JOINT lowerneck
				{
					OFFSET 0 0 0
					CHANNELS 3 Zrotation Yrotation Xrotation
					JOINT Neck
					{
						OFFSET -0.05182 1.80489 0.16014
						CHANNELS 3 Zrotation Yrotation Xrotation
						JOINT Head
						{
							OFFSET 0.14739 1.78840 -0.33342
							CHANNELS 3 Zrotation Yrotation Xrotation
							End Site
							{
								OFFSET 0.04364 1.83899 -0.13460
							}
						}
					}
				}
				JOINT LeftCollar
				{
					OFFSET 0 0 0
					CHANNELS 3 Zrotation Yrotation Xrotation
					JOINT LeftShoulder
					{
						OFFSET 3.01264 1.29090 -0.06579
CHANNELS 3 Zrotation Xrotation Yrotation
						JOINT LeftElbow
						{
OFFSET 0 -5.556800 0.000000
CHANNELS 3 Zrotation Xrotation Yrotation
							JOINT LeftWrist
							{
OFFSET 0 -3.639790 -0.000000
CHANNELS 3 Zrotation Xrotation Yrotation
								JOINT lhand
								{
									OFFSET 0 0 0
CHANNELS 3 Zrotation Xrotation Yrotation
									JOINT LFingers
									{
OFFSET 0 -0.569420 -0.000000
CHANNELS 3 Zrotation Xrotation Yrotation
										End Site
										{
OFFSET 0 -0.459080 -0.000000
										}
									}
								}
								JOINT LThumb
								{
OFFSET 0 0.000000 0.000000
CHANNELS 3 Zrotation Xrotation Yrotation
									End Site
									{
OFFSET 0 -0.466090 0.466090
									}
								}
							}
						}
					}
				}
				JOINT RightCollar
				{
					OFFSET 0 0 0
					CHANNELS 3 Zrotation Yrotation Xrotation
					JOINT RightShoulder
					{
						OFFSET -3.15796 1.37283 -0.36748
CHANNELS 3 Zrotation Xrotation Yrotation
						JOINT RightElbow
						{
OFFSET 0 -5.343390 0.000000
CHANNELS 3 Zrotation Xrotation Yrotation
							JOINT RightWrist
							{
OFFSET 0 -3.651010 -0.000000
CHANNELS 3 Zrotation Xrotation Yrotation
								JOINT rhand
								{
									OFFSET 0 0 0
CHANNELS 3 Zrotation Xrotation Yrotation
									JOINT RFingers
									{
OFFSET 0 -0.694250 -0.000000
CHANNELS 3 Zrotation Xrotation Yrotation
										End Site
										{
OFFSET 0 -0.559720 -0.000000
										}
									}
								}
								JOINT RThumb
								{
OFFSET 0 0.000000 0.000000
CHANNELS 3 Zrotation Xrotation Yrotation
									End Site
									{
OFFSET 0 -0.568270 0.568270
									}
								}
							}
						}
					}
				}
			}
		}
	}
}
MOTION
Frames: 8
Frame Time: 0.008333333333333333
-7.055748 17.445472 -5.494599 -0.651921 -3.875186 -5.348341 0.000000 0.000000 0.000000 2.411959 -21.304063 -13.573610 3.951310 12.092139 36.063141 0.161732 7.053295 -13.158667 0.089379 -1.902180 -5.236018 0.000000 0.000000 0.000000 12.735696 10.691937 -11.434508 -4.540761 -12.846917 38.798470 -0.936230 -1.334155 -18.809243 -0.077605 1.618802 -4.457985 -3.662061 2.513170 9.729042 -0.651226 2.991349 4.315058 1.064080 1.456683 -1.113184 2.429342 3.681519 -11.068642 -7.532496 6.341602 21.083012 -2.258600 2.428918 8.724758 0.000000 0.000000 0.000000 9.940540 -2.579477 -39.530155 30.353447 -41.194302 11.641786 37.608194 1.010250 -20.192250 0.000000 0.000000 0.000000 -7.125000 0.000000 0.000000 9.889943 54.608797 -2.350547 0.000000 0.000000 0.000000 -12.517882 4.365376 17.252604 -23.371270 -34.492006 -7.347569 -16.715135 -7.542100 -34.756813 0.000000 0.000000 0.000000 7.125000 0.000000 0.000000 8.809963 -5.567191 9.733887
-7.139843 17.450217 -5.512996 -0.279762 -3.541759 -5.391623 0.000000 0.000000 0.000000 1.590276 -20.604190 -14.078229 4.136929 12.337017 36.939822 0.217795 7.100886 -14.094800 0.060137 -1.547741 -4.258055 0.000000 0.000000 0.000000 12.505487 10.205812 -11.672124 -4.590482 -12.906950 39.021610 -0.957290 -1.060664 -18.899729 -0.165816 2.494805 -6.881155 -4.042982 2.475310 9.741727 -0.797679 2.907448 4.425975 1.137040 1.408850 -1.010353 2.533626 3.675758 -11.409525 -7.575487 6.335405 21.257835 -2.287600 2.417153 8.852474 0.000000 0.000000 0.000000 9.840420 -2.548831 -39.181864 30.463540 -41.287305 11.714359 37.553583 1.845150 -20.865350 0.000000 0.000000 0.000000 -7.125000 0.000000 0.000000 9.814030 55.387391 -2.518640 0.000000 0.000000 0.000000 -12.360246 4.256929 16.870811 -23.234210 -34.343617 -7.270106 -16.563406 -7.090301 -34.664439 0.000000 0.000000 0.000000 7.125000 0.000000 0.000000 8.880890 -5.447172 9.797261
-7.223223 17.454877 -5.531793 0.018858 -3.198382 -5.445170 0.000000 0.000000 0.000000 0.825388 -19.884250 -14.584784 4.340744 12.596704 37.882953 0.282672 7.089180 -15.032259 0.037311 -1.223067 -3.363117 0.000000 0.000000 0.000000 12.358724 9.725514 -11.886938 -4.636354 -12.962040 39.226829 -0.977656 -0.724194 -18.964005 -0.185304 2.723286 -7.512013 -4.331413 2.445234 9.755884 -0.915923 2.843172 4.544653 1.185368 1.371156 -0.898182 2.556483 3.645344 -11.705351 -7.564714 6.297024 21.404134 -2.288918 2.391253 8.956000 0.000000 0.000000 0.000000 9.742172 -2.632006 -39.002254 30.437158 -41.264763 11.697070 37.413465 2.254763 -21.114026 0.000000 0.000000 0.000000 -7.125000 0.000000 0.000000 9.650317 55.647430 -2.540603 0.000000 0.000000 0.000000 -12.223897 4.178793 16.479447 -23.120330 -34.220028 -7.205875 -16.450780 -6.712713 -34.558813 0.000000 0.000000 0.000000 7.125000 0.000000 0.000000 8.928972 -5.321348 9.833878
-7.305672 17.459428 -5.551110 0.221761 -2.842055 -5.512079 0.000000 0.000000 0.000000 0.134423 -19.138190 -15.093857 4.568241 12.875666 38.912574 0.359021 7.000291 -15.971443 0.022835 -0.937134 -2.576244 0.000000 0.000000 0.000000 12.320574 9.252799 -12.072073 -4.677215 -13.010696 39.408720 -0.997119 -0.305752 -18.994167 -0.115346 2.108961 -5.810018 -4.499458 2.425287 9.771957 -0.997452 2.804441 4.673435 1.201635 1.346659 -0.773855 2.473356 3.582841 -11.942531 -7.483959 6.216753 21.513308 -2.254205 2.346954 9.028040 0.000000 0.000000 0.000000 9.646360 -2.863328 -39.042195 30.233142 -41.091828 11.562818 37.162051 2.110828 -20.810276 0.000000 0.000000 0.000000 -7.125000 0.000000 0.000000 9.372323 55.232521 -2.372364 0.000000 0.000000 0.000000 -12.115256 4.140110 16.075625 -23.036623 -34.128719 -7.158865 -16.389052 -6.431718 -34.435938 0.000000 0.000000 0.000000 7.125000 0.000000 0.000000 8.947321 -5.187968 9.835670
-7.387138 17.463997 -5.571303 0.299587 -2.501215 -5.567322 0.000000 0.000000 0.000000 -0.425338 -18.352974 -15.622830 4.809190 13.161701 39.983709 0.436317 6.848025 -16.825294 0.012396 -0.714007 -1.962339 0.000000 0.000000 0.000000 12.425865 8.807201 -12.256012 -4.713843 -13.054119 39.571373 -1.012079 0.074142 -19.000392 -0.058517 1.429899 -3.934197 -4.543890 2.412361 9.823971 -1.031823 2.782769 4.748537 1.193037 1.333933 -0.723124 2.394588 3.499296 -12.029358 -7.422854 6.107634 21.575912 -2.232068 2.292473 9.055065 0.000000 0.000000 0.000000 9.590884 -3.050671 -39.272165 29.960656 -40.858158 11.384462 36.859763 1.699679 -20.343258 0.000000 0.000000 0.000000 -7.125000 0.000000 0.000000 9.047457 54.616189 -2.156449 0.000000 0.000000 0.000000 -12.036214 4.207945 15.688345 -22.960381 -34.045413 -7.116106 -16.316678 -6.192219 -34.283000 0.000000 0.000000 0.000000 7.125000 0.000000 0.000000 8.968010 -5.022862 9.835389
-7.466925 17.468596 -5.592992 0.163495 -2.186863 -5.602616 0.000000 0.000000 0.000000 -0.760702 -17.500790 -16.185837 5.073143 13.459835 41.125844 0.515232 6.587364 -17.533204 0.008862 -0.598298 -1.644259 0.000000 0.000000 0.000000 12.776479 8.407979 -12.437903 -4.743230 -13.088589 39.701123 -1.019342 0.388107 -18.965679 -0.024143 0.640121 -1.761085 -4.376910 2.411441 9.937454 -0.985539 2.790273 4.731834 1.141911 1.341340 -0.798262 2.323274 3.379762 -11.859037 -7.395355 5.949175 21.558870 -2.231438 2.220578 9.005102 0.000000 0.000000 0.000000 9.604391 -3.162798 -39.827135 29.571068 -40.520616 11.130675 36.470466 0.831519 -19.597004 0.000000 0.000000 0.000000 -7.125000 0.000000 0.000000 8.642426 53.655364 -1.858993 0.000000 0.000000 0.000000 -12.007795 4.457955 15.329355 -22.896911 -33.975793 -7.080619 -16.226095 -6.023689 -34.078644 0.000000 0.000000 0.000000 7.125000 0.000000 0.000000 8.992701 -4.803498 9.831564
-7.545301 17.474665 -5.614461 0.048235 -1.874787 -5.630638 0.000000 0.000000 0.000000 -1.141270 -16.647681 -16.751414 5.348306 13.761817 42.299051 0.582526 6.361785 -18.126303 0.012820 -0.653755 -1.797031 0.000000 0.000000 0.000000 13.100972 7.994918 -12.628624 -4.769856 -13.119784 39.818590 -1.022593 0.648640 -18.911794 -0.000288 0.049350 -0.135703 -4.248304 2.394037 10.066553 -0.938800 2.771333 4.698413 1.114718 1.335584 -0.899566 2.252151 3.276256 -11.677111 -7.361568 5.810564 21.531677 -2.226314 2.158997 8.950540 0.000000 0.000000 0.000000 9.634279 -3.192640 -40.323090 29.256038 -40.246921 10.925752 36.196376 0.245135 -19.166596 0.000000 0.000000 0.000000 -7.125000 0.000000 0.000000 8.353498 53.090069 -1.671633 0.000000 0.000000 0.000000 -12.004483 4.699268 15.044350 -22.820497 -33.891791 -7.037991 -16.123716 -5.895546 -33.893211 0.000000 0.000000 0.000000 7.125000 0.000000 0.000000 9.026457 -4.600853 9.840080
-7.620439 17.484106 -5.635425 -0.019206 -1.567939 -5.641967 0.000000 0.000000 0.000000 -1.625604 -15.792447 -17.322893 5.649199 14.072635 43.543582 0.623145 6.216737 -18.455857 0.033977 -1.102117 -3.030620 0.000000 0.000000 0.000000 13.365507 7.550090 -12.839612 -4.790141 -13.143458 39.907866 -1.016638 0.786524 -18.813901 -0.000579 -0.084612 0.232389 -4.207781 2.338797 10.231499 -0.891015 2.691692 4.626615 1.142459 1.299613 -1.060930 2.181466 3.209541 -11.468543 -7.313347 5.717512 21.481181 -2.210869 2.121089 8.885424 0.000000 0.000000 0.000000 9.701769 -3.033599 -40.683581 29.112151 -40.119786 10.832990 36.186742 0.305555 -19.461195 0.000000 0.000000 0.000000 -7.125000 0.000000 0.000000 8.331082 53.432695 -1.736992 0.000000 0.000000 0.000000 -12.058804 4.920617 14.929173 -22.714373 -33.774775 -6.978975 -15.994257 -5.860107 -33.751213 0.000000 0.000000 0.000000 7.125000 0.000000 0.000000 9.081020 -4.436584 9.876923
